<svg width="423" height="101" viewBox="0 0 423 101" fill="none" xmlns="http://www.w3.org/2000/svg">
<path fill-rule="evenodd" clip-rule="evenodd" d="M50.2 0C49.1 0 48.1 0.399997 47.3 1.2C46.5 2 46.1 3.00001 46.1 4.10001C46.1 6.30001 47.9 8.10001 50.1 8.10001C52.3 8.10001 54.1 6.30001 54.1 4.10001C54.2 1.90001 52.4 0 50.2 0ZM50.2 92.4C48.5 92.4 47 93.4 46.4 94.9C45.8 96.4 46.1 98.2 47.3 99.4C48.5 100.6 50.2 100.9 51.8 100.3C53.4 99.7 54.3 98.2 54.3 96.5C54.2 94.3 52.4 92.4 50.2 92.4ZM82.5 21.8C84.2 21.8 85.7 20.8 86.3 19.3C86.9 17.8 86.6 16 85.4 14.8C84.2 13.6 82.5 13.3 80.9 13.9C79.4 14.5 78.4 16 78.4 17.7C78.5 19.9 80.3 21.8 82.5 21.8ZM82.5 78.9C80.8 78.9 79.3 79.9 78.7 81.4C78.1 82.9 78.4 84.7 79.6 85.9C80.8 87.1 82.5 87.4 84.1 86.8C85.7 86.2 86.6 84.7 86.6 83C86.6 80.7 84.8 78.9 82.5 78.9ZM17.8 78.9C16.1 78.9 14.6 79.9 14 81.4C13.4 82.9 13.7 84.7 14.9 85.9C16.1 87.1 17.8 87.4 19.4 86.8C20.9 86.2 21.9 84.7 21.9 83C21.9 80.7 20.1 78.9 17.8 78.9Z" fill="#73B72B"/>
<path fill-rule="evenodd" clip-rule="evenodd" d="M8.40002 50.4C8.40002 49.3 8.00001 48.3 7.20001 47.5C6.40001 46.7 5.40002 46.3 4.30002 46.3C2.00002 46.3 0.200012 48.1 0.200012 50.4C0.200012 52.7 2.00002 54.5 4.30002 54.5C5.40002 54.5 6.40001 54.1 7.20001 53.3C8.00001 52.5 8.40002 51.5 8.40002 50.4Z" fill="#73B72B"/>
<path fill-rule="evenodd" clip-rule="evenodd" d="M96 46.3C94.3 46.3 92.8 47.3 92.2 48.8C91.6 50.3 91.9 52.1 93.1 53.3C94.3 54.5 96 54.8 97.6 54.2C99.1 53.6 100.1 52.1 100.1 50.4C100 48.1 98.2 46.3 96 46.3ZM17.8 21.7C19.5 21.7 21 20.7 21.6 19.2C22.2 17.7 21.9 15.9 20.7 14.7C19.5 13.5 17.8 13.2 16.2 13.8C14.6 14.4 13.7 15.9 13.7 17.6C13.8 19.8 15.6 21.7 17.8 21.7ZM50.2 13.6C49.1 13.6 48.1 14 47.3 14.8C46.5 15.6 46.1 16.6 46.1 17.7V34C46.1 36.2 47.9 38 50.1 38C52.3 38 54.1 36.2 54.1 34V17.7C54.2 15.4 52.4 13.6 50.2 13.6ZM50.2 62.6C48 62.6 46.1 64.4 46.2 66.7V83C46.2 85.2 48 87 50.2 87C52.4 87 54.2 85.2 54.2 83V66.7C54.2 64.5 52.4 62.6 50.2 62.6ZM42.1 46.3H17.8C15.5 46.3 13.7 48.1 13.7 50.4C13.7 52.7 15.5 54.5 17.8 54.5H42.1C44.4 54.5 46.2 52.7 46.2 50.4C46.2 48.1 44.4 46.3 42.1 46.3ZM82.5 54.5C84.8 54.5 86.6 52.7 86.6 50.4C86.6 48.1 84.8 46.3 82.5 46.3H58.2C55.9 46.3 54.1 48.1 54.1 50.4C54.1 52.7 55.9 54.5 58.2 54.5H58.3H82.5ZM66.4 38.1C67.5 38.1 68.5 37.7 69.3 36.9C70.1 36.1 70.5 35.1 70.5 34V7C70.5 4.8 68.7 3 66.5 3C64.3 3 62.5 4.8 62.5 7V34C62.5 35.1 62.9 36.1 63.7 36.9C64.5 37.7 65.3 38.1 66.4 38.1ZM33.9 62.6C31.7 62.6 29.8 64.4 29.9 66.7V93.7C29.9 95.9 31.7 97.7 33.9 97.7C36.1 97.7 37.9 95.9 37.9 93.7V66.7C38 64.5 36.2 62.6 33.9 62.6ZM7.30002 38H34C36.3 38 38.1 36.2 38.1 33.9C38.1 31.6 36.3 29.8 34 29.8H7.30002C5.00002 29.8 3.20001 31.6 3.20001 33.9C3.20001 36.2 5.00002 38 7.30002 38ZM93.1 62.6H66.4C64.1 62.6 62.3 64.4 62.3 66.7C62.3 69 64.1 70.8 66.4 70.8H93.1C95.4 70.8 97.2 69 97.2 66.7C97.2 64.4 95.3 62.6 93.1 62.6ZM34 21.8C36.2 21.8 38 20 38 17.7V7C38 4.8 36.2 3 34 3C31.8 3 30 4.8 30 7V17.7C29.9 19.9 31.8 21.8 34 21.8ZM17.8 70.8C20.1 70.8 21.9 69 21.9 66.7C21.9 64.4 20.1 62.6 17.8 62.6H7.30002C5.00002 62.6 3.20001 64.4 3.20001 66.7C3.20001 69 5.00002 70.8 7.30002 70.8H7.40002H17.8ZM82.5 38.1H93.1C95.4 38.1 97.2 36.3 97.2 34C97.2 31.7 95.4 29.9 93.1 29.9H82.5C80.2 29.9 78.4 31.7 78.4 34C78.4 36.3 80.3 38.1 82.5 38.1ZM66.4 78.9C64.2 78.9 62.3 80.7 62.4 83V93.7C62.4 95.9 64.2 97.7 66.4 97.7C68.6 97.7 70.4 95.9 70.4 93.7V83.1V83C70.4 80.7 68.6 78.9 66.4 78.9Z" fill="#73B72B"/>
<path fill-rule="evenodd" clip-rule="evenodd" d="M166.1 28.4C174.5 28.4 181.8 34 183.8 42.1L184 42.8L192.4 41.7L192.2 40.8C189.2 28.9 178.4 20.5 166.1 20.6C149.6 20.6 137.7 33.1 137.7 50.2C137.5 58.2 140.5 66 146 71.8C151.3 77.1 158.6 80.1 166.2 79.9C178.2 80.1 188.9 72.2 192.2 60.6L192.4 59.7L184.2 58.1L184 58.8C181.6 66.6 174.4 72 166.2 72C154.7 72 146.3 62.8 146.3 50.1C146.2 37.6 154.5 28.4 166.1 28.4ZM220 72.2C212.1 72.2 206.6 66.3 206.6 57.9C206.6 49.7 212.2 43.7 220 43.7C227.8 43.7 233.4 49.7 233.4 57.9C233.4 66.2 227.7 72.2 220 72.2ZM220 36.3C207.5 36.3 198.7 45.2 198.7 57.9C198.7 70.7 207.5 79.6 220 79.6C225.8 79.7 231.3 77.5 235.4 73.4C239.5 69.3 241.6 63.7 241.3 57.9C241.5 52.2 239.4 46.6 235.3 42.5C231.3 38.4 225.7 36.1 220 36.3ZM293.7 21.2C292.4 21.1 291.2 21.6 290.3 22.5C289.4 23.4 288.9 24.6 288.9 25.9C288.9 27.6 289.8 29.2 291.2 30.1C292.6 31 294.5 31 296 30.1C297.5 29.2 298.4 27.6 298.3 25.9C298.3 24.7 297.9 23.4 297 22.6C296.2 21.7 295 21.2 293.7 21.2Z" fill="#0C2B3F"/>
<path fill-rule="evenodd" clip-rule="evenodd" d="M289.7 78.7H297.7V38H289.7V78.7Z" fill="#0C2B3F"/>
<path fill-rule="evenodd" clip-rule="evenodd" d="M328.5 44C332.2 44 335.7 45.6 338.3 48.3C340.8 51 342.2 54.6 342 58.3C342 66.7 336.4 72.7 328.6 72.7C324.9 72.7 321.3 71.1 318.8 68.4C316.3 65.7 314.9 62 315.1 58.3C314.9 54.6 316.2 51 318.8 48.3C321.3 45.6 324.8 44 328.5 44ZM329.3 36.5C323.9 36.3 318.6 38.7 315.3 42.9V21.8H307.3V78.6001H315.3V73.5C318.6 77.9 323.8 80.4001 329.3 80.1001C341.1 80.1001 350 70.7 350 58.2C350 45.9 341.1 36.5 329.3 36.5ZM247.7 71V21.9H255.7V69C255.7 71.4 257.1 71.8 259 71.8H261.5V78.7H257.2C252.1 78.7 247.7 76.9 247.7 71ZM267.9 71V21.9H275.9V69C275.9 71.4 277.3 71.8 279.2 71.8H281.7V78.7H277.4C272.4 78.7 267.9 76.9 267.9 71ZM373.6 37.6001C369.9 37.5001 366.3 39.2 364.2 42.3V38.1001H356.4V78.7H364.4V56.9C364.4 49.7 367.3 45.4 373.3 45.4C375.2 45.3 377.2 45.6 379 46.4V38.7C377.3 37.9 375.5 37.5001 373.6 37.6001Z" fill="#0C2B3F"/>
<path fill-rule="evenodd" clip-rule="evenodd" d="M397.4 73.0001C392.7 73.0001 389.9 71.1001 389.9 67.9001C389.9 63.3001 395.4 61.6001 400.1 61.0001L409.8 59.9001V62.4001C409.8 68.6001 404.7 73.0001 397.4 73.0001ZM421.1 71.8001C419.3 71.8001 417.9 71.4001 417.8 69.2001V52.0001C417.8 42.6001 411.1 36.6001 400.7 36.6001C390.5 36.6001 383.9 42.2001 383.9 50.9001V51.7001H392V50.8001C391.9 49.1001 392.5 47.5001 393.7 46.3001C395.6 44.6001 398.2 43.7001 400.7 43.9001C406.5 43.9001 409.9 46.8001 409.9 51.7001V52.5001L400 53.7001C388.6 55.0001 382 60.1001 382 67.8001C382 74.9001 387.9 79.7001 396.6 79.7001C401.7 80.0001 406.7 77.7001 409.9 73.6001H410.3C411.5 77.3001 415.3 78.4001 419.4 78.4001H422.1V71.5001H421.1V71.8001Z" fill="#0C2B3F"/>
</svg>
