<?xml version="1.0" encoding="UTF-8"?>
<svg width="160px" height="38px" viewBox="0 0 160 38" version="1.1" xmlns="http://www.w3.org/2000/svg" xmlns:xlink="http://www.w3.org/1999/xlink">
    <defs>
        <polygon id="path-1" points="0 0.190728016 3.0705535 0.190728016 3.0705535 3.25630927 0 3.25630927"></polygon>
        <polygon id="path-3" points="0.0467232975 0.124369691 15.2479375 0.124369691 15.2479375 16.3479689 0.0467232975 16.3479689"></polygon>
    </defs>
    <g id="Symbols" stroke="none" stroke-width="1" fill="none" fill-rule="evenodd">
        <g id="footer" transform="translate(-155.000000, -116.000000)">
            <g id="Group-61-Copy" transform="translate(155.000000, 116.000000)">
                <path d="M18.9044777,9.63110668e-05 C18.0565125,9.63110668e-05 17.3693296,0.68647318 17.3693296,1.53272642 C17.3693296,2.37962173 18.0565125,3.06567757 18.9044777,3.06567757 C19.7524428,3.06567757 20.4396258,2.37962173 20.4396258,1.53272642 C20.4396258,0.68647318 19.7524428,9.63110668e-05 18.9044777,9.63110668e-05" id="Fill-1" fill="#6FC100"></path>
                <path d="M18.9044777,34.6352574 C18.0565125,34.6352574 17.3693296,35.3216343 17.3693296,36.1682086 C17.3693296,37.0147829 18.0565125,37.7008387 18.9044777,37.7008387 C19.7524428,37.7008387 20.4396258,37.0147829 20.4396258,36.1682086 C20.4396258,35.3216343 19.7524428,34.6352574 18.9044777,34.6352574" id="Fill-3" fill="#6FC100"></path>
                <path d="M31.1798102,8.16130349 C32.0280969,8.16130349 32.7152799,7.47492662 32.7152799,6.62867338 C32.7152799,5.78177807 32.0280969,5.09572223 31.1798102,5.09572223 C30.331845,5.09572223 29.6446621,5.78177807 29.6446621,6.62867338 C29.6446621,7.47492662 30.331845,8.16130349 31.1798102,8.16130349" id="Fill-5" fill="#6FC100"></path>
                <path d="M31.1798102,29.556518 C30.331845,29.556518 29.6446621,30.2428949 29.6446621,31.0894692 C29.6446621,31.9360435 30.331845,32.6220993 31.1798102,32.6220993 C32.0280969,32.6220993 32.7152799,31.9360435 32.7152799,31.0894692 C32.7152799,30.2428949 32.0280969,29.556518 31.1798102,29.556518" id="Fill-7" fill="#6FC100"></path>
                <path d="M6.63634822,29.556518 C5.78838307,29.556518 5.1012001,30.2428949 5.1012001,31.0894692 C5.1012001,31.9360435 5.78838307,32.6220993 6.63634822,32.6220993 C7.48431336,32.6220993 8.17149634,31.9360435 8.17149634,31.0894692 C8.17149634,30.2428949 7.48431336,29.556518 6.63634822,29.556518" id="Fill-9" fill="#6FC100"></path>
                <g id="Group-13" transform="translate(0.000000, 17.154606)">
                    <mask id="mask-2" fill="white">
                        <use xlink:href="#path-1"></use>
                    </mask>
                    <g id="Clip-12"></g>
                    <path d="M3.0705535,1.72335813 C3.0705535,0.876783848 2.38304895,0.190728016 1.53540537,0.190728016 C0.687440229,0.190728016 -6.43128664e-05,0.876783848 -6.43128664e-05,1.72335813 C-6.43128664e-05,2.5699324 0.687440229,3.25630927 1.53540537,3.25630927 C2.38304895,3.25630927 3.0705535,2.5699324 3.0705535,1.72335813" id="Fill-11" fill="#6FC100" mask="url(#mask-2)"></path>
                </g>
                <path d="M36.2764762,17.3452058 C35.4285111,17.3452058 34.7413281,18.0315827 34.7413281,18.8778359 C34.7413281,19.7247312 35.4285111,20.410787 36.2764762,20.410787 C37.1244414,20.410787 37.8116243,19.7247312 37.8116243,18.8778359 C37.8116243,18.0315827 37.1244414,17.3452058 36.2764762,17.3452058" id="Fill-14" fill="#6FC100"></path>
                <path d="M6.63634822,8.12040339 C7.48431336,8.12040339 8.17149634,7.43402652 8.17149634,6.58745224 C8.17149634,5.74087797 7.48431336,5.05482213 6.63634822,5.05482213 C5.78838307,5.05482213 5.1012001,5.74087797 5.1012001,6.58745224 C5.1012001,7.43402652 5.78838307,8.12040339 6.63634822,8.12040339" id="Fill-16" fill="#6FC100"></path>
                <path d="M18.9044777,5.09562592 C18.0565125,5.09562592 17.3693296,5.78200279 17.3693296,6.62857707 L17.3693296,12.7128682 L17.3709374,12.7128682 C17.3706158,12.7266728 17.3693296,12.7401563 17.3693296,12.7539609 C17.3693296,13.6005352 18.0565125,14.286591 18.9044777,14.286591 C19.7524428,14.286591 20.4396258,13.6005352 20.4396258,12.7539609 C20.4396258,12.7401563 20.4383395,12.7266728 20.438018,12.7128682 L20.4396258,12.7128682 L20.4396258,6.62857707 C20.4396258,5.78200279 19.7524428,5.09562592 18.9044777,5.09562592" id="Fill-18" fill="#6FC100"></path>
                <path d="M18.9044777,23.4720022 C18.0565125,23.4720022 17.3693296,24.1583791 17.3693296,25.0049533 L17.3693296,31.0895655 L17.3709374,31.0895655 C17.3706158,31.1030491 17.3693296,31.1165326 17.3693296,31.1303372 C17.3693296,31.9769115 18.0565125,32.6632883 18.9044777,32.6632883 C19.7524428,32.6632883 20.4396258,31.9769115 20.4396258,31.1303372 C20.4396258,31.1165326 20.4383395,31.1030491 20.438018,31.0895655 L20.4396258,31.0895655 L20.4396258,25.0049533 C20.4396258,24.1583791 19.7524428,23.4720022 18.9044777,23.4720022" id="Fill-20" fill="#6FC100"></path>
                <path d="M15.8395516,17.3466183 L6.67754061,17.3466183 L6.67754061,17.3485446 C6.66371334,17.3482235 6.65020764,17.3466183 6.63638037,17.3466183 C5.78841523,17.3466183 5.10091069,18.0329952 5.10091069,18.8792485 C5.10091069,19.7261438 5.78841523,20.4121996 6.63638037,20.4121996 C6.65020764,20.4121996 6.66371334,20.4105944 6.67754061,20.4102734 L6.67754061,20.4121996 L15.8395516,20.4121996 C16.6878383,20.4121996 17.3746997,19.7261438 17.3746997,18.8792485 C17.3746997,18.0329952 16.6878383,17.3466183 15.8395516,17.3466183" id="Fill-22" fill="#6FC100"></path>
                <path d="M31.1798102,20.4122959 C32.0280969,20.4122959 32.7152799,19.725919 32.7152799,18.8793448 C32.7152799,18.0327705 32.0280969,17.3467147 31.1798102,17.3467147 L22.0177992,17.3467147 L22.0177992,17.3486409 C22.003972,17.3483198 21.9904663,17.3467147 21.976639,17.3467147 C21.1286739,17.3467147 20.4411693,18.0327705 20.4411693,18.8793448 C20.4411693,19.725919 21.1286739,20.4122959 21.976639,20.4122959 C21.9904663,20.4122959 22.003972,20.4106907 22.0177992,20.4103697 L22.0177992,20.4122959 L31.1798102,20.4122959 Z" id="Fill-24" fill="#6FC100"></path>
                <path d="M25.0430765,14.2867194 C25.8910416,14.2867194 26.5782246,13.6006636 26.5782246,12.7540893 C26.5782246,12.7402847 26.5766168,12.7268012 26.5762952,12.7129966 L26.5782246,12.7129966 L26.5782246,2.63051206 C26.5782246,1.78393779 25.8910416,1.09756092 25.0430765,1.09756092 C24.1947898,1.09756092 23.5076068,1.78393779 23.5076068,2.63051206 L23.5076068,12.7129966 L23.5095362,12.7129966 C23.5092146,12.7268012 23.5076068,12.7402847 23.5076068,12.7540893 C23.5076068,13.6006636 24.1947898,14.2867194 25.0430765,14.2867194" id="Fill-26" fill="#6FC100"></path>
                <path d="M12.7306998,23.4720022 C11.8827346,23.4720022 11.1955516,24.1583791 11.1955516,25.0049533 L11.1955516,35.0874379 L11.197481,35.0874379 C11.1971595,35.1012425 11.1955516,35.114405 11.1955516,35.1285306 C11.1955516,35.9747838 11.8827346,36.6611607 12.7306998,36.6611607 C13.5789865,36.6611607 14.2661694,35.9747838 14.2661694,35.1285306 C14.2661694,35.114405 14.2645616,35.1012425 14.2642401,35.0874379 L14.2661694,35.0874379 L14.2661694,25.0049533 C14.2661694,24.1583791 13.5789865,23.4720022 12.7306998,23.4720022" id="Fill-28" fill="#6FC100"></path>
                <path d="M2.63187543,14.2458193 L12.7306033,14.2458193 L12.7306033,14.2438931 C12.7444306,14.2442142 12.7579363,14.2458193 12.7717635,14.2458193 C13.6197287,14.2458193 14.3072332,13.5594425 14.3072332,12.7128682 C14.3072332,11.8662939 13.6197287,11.1802381 12.7717635,11.1802381 C12.7579363,11.1802381 12.7444306,11.1818433 12.7306033,11.1821643 L12.7306033,11.1802381 L2.63187543,11.1802381 C1.78391029,11.1802381 1.09672731,11.8662939 1.09672731,12.7128682 C1.09672731,13.5594425 1.78391029,14.2458193 2.63187543,14.2458193" id="Fill-30" fill="#6FC100"></path>
                <path d="M35.1830289,23.4720022 C35.1692016,23.4720022 35.1556959,23.4736074 35.1418686,23.4742495 L35.1418686,23.4720022 L25.0431408,23.4720022 C24.1948541,23.4720022 23.5073495,24.1583791 23.5073495,25.0049533 C23.5073495,25.8515276 24.1948541,26.5375834 25.0431408,26.5375834 L35.1418686,26.5375834 L35.1418686,26.5356572 C35.1556959,26.5359783 35.1692016,26.5375834 35.1830289,26.5375834 C36.030994,26.5375834 36.718177,25.8515276 36.718177,25.0049533 C36.718177,24.1583791 36.030994,23.4720022 35.1830289,23.4720022" id="Fill-32" fill="#6FC100"></path>
                <path d="M12.7718278,8.16130349 C13.619793,8.16130349 14.306976,7.47492662 14.306976,6.62867338 C14.306976,6.61454776 14.3056897,6.60138524 14.3053681,6.58758066 L14.306976,6.58758066 L14.306976,2.63047996 C14.306976,1.78390568 13.619793,1.09784985 12.7718278,1.09784985 C11.9238627,1.09784985 11.2366797,1.78390568 11.2366797,2.63047996 L11.2366797,6.58758066 L11.2386091,6.58758066 C11.237966,6.60138524 11.2366797,6.61454776 11.2366797,6.62867338 C11.2366797,7.47492662 11.9238627,8.16130349 12.7718278,8.16130349" id="Fill-34" fill="#6FC100"></path>
                <path d="M6.63351845,26.5348867 C7.4814836,26.5348867 8.16866657,25.8485099 8.16866657,25.0019356 C8.16866657,24.1553613 7.4814836,23.4693055 6.63351845,23.4693055 L2.66991649,23.4693055 L2.66991649,23.4712317 C2.65608923,23.4709107 2.64290509,23.4693055 2.62907782,23.4693055 C1.78079112,23.4693055 1.09328657,24.1553613 1.09328657,25.0019356 C1.09328657,25.8485099 1.78079112,26.5348867 2.62907782,26.5348867 C2.64290509,26.5348867 2.65608923,26.5332816 2.66991649,26.5326395 L2.66991649,26.5348867 L6.63351845,26.5348867 Z" id="Fill-36" fill="#6FC100"></path>
                <path d="M31.1785561,14.2867194 C31.1923834,14.2867194 31.2058891,14.2851143 31.2197163,14.2847932 L31.2197163,14.2867194 L35.1829967,14.2867194 C36.0309619,14.2867194 36.7184664,13.6006636 36.7184664,12.7540893 C36.7184664,11.9075151 36.0309619,11.2211382 35.1829967,11.2211382 L31.2197163,11.2211382 L31.2197163,11.2233854 C31.2058891,11.2230644 31.1923834,11.2211382 31.1785561,11.2211382 C30.3302694,11.2211382 29.643408,11.9075151 29.643408,12.7540893 C29.643408,13.6006636 30.3302694,14.2867194 31.1785561,14.2867194" id="Fill-38" fill="#6FC100"></path>
                <path d="M25.0430765,29.556518 C24.1947898,29.556518 23.5076068,30.2428949 23.5076068,31.0894692 C23.5076068,31.1032738 23.5092146,31.1164363 23.5095362,31.1302409 L23.5076068,31.1302409 L23.5076068,35.0873416 C23.5076068,35.9339159 24.1947898,36.6199717 25.0430765,36.6199717 C25.8910416,36.6199717 26.5782246,35.9339159 26.5782246,35.0873416 L26.5782246,31.1302409 L26.5762952,31.1302409 C26.5766168,31.1164363 26.5782246,31.1032738 26.5782246,31.0894692 C26.5782246,30.2428949 25.8910416,29.556518 25.0430765,29.556518" id="Fill-40" fill="#6FC100"></path>
                <path d="M62.8674026,10.6454227 C66.0499248,10.6454227 68.8771184,12.8082483 69.5893834,15.7877916 L69.6549825,16.0629202 L72.8307519,15.6356201 L72.7513255,15.2998156 C71.7120296,10.9131675 67.555489,7.72944467 62.8674026,7.72944467 C56.6210155,7.72944467 52.0876015,12.4002104 52.0868191,18.8357159 C52.072488,22.0085234 53.1863868,24.8801984 55.2228537,26.9229561 C57.1827883,28.8893071 59.8980776,29.9718435 62.8674026,29.9718435 C67.5368383,29.9718435 71.6808378,26.9338714 72.7220631,22.7478714 L72.801168,22.4287607 L69.6987153,21.8236062 L69.6208967,22.1022662 C68.8192368,24.972336 65.9791807,27.0555444 62.8674026,27.0555444 C58.4960571,27.0555444 55.3228602,23.5989402 55.3228602,18.8360369 C55.3228602,14.0901486 58.4960571,10.6454227 62.8674026,10.6454227" id="Fill-42" fill="#FFFFFF"></path>
                <path d="M83.3281873,27.0628319 C80.3379606,27.0628319 78.2497218,24.8601978 78.2497218,21.7063314 C78.2497218,18.6195617 80.3855521,16.3790453 83.3281873,16.3790453 C86.2708226,16.3790453 88.4063313,18.6195617 88.4063313,21.7063314 C88.4063313,24.8101161 86.2708226,27.0628319 83.3281873,27.0628319 M83.3281873,13.6059286 C78.567749,13.6059286 75.2427738,16.9370074 75.2427738,21.7063314 C75.2427738,26.4929914 78.567749,29.8356275 83.3281873,29.8356275 C88.0127365,29.8356275 91.4136009,26.4169057 91.4136009,21.7063314 C91.4136009,17.0127721 88.0127365,13.6059286 83.3281873,13.6059286" id="Fill-44" fill="#FFFFFF"></path>
                <path d="M111.307725,7.95766979 C110.265535,7.95766979 109.508894,8.69156012 109.508894,9.70282632 C109.508894,10.7433069 110.265535,11.4987067 111.307725,11.4987067 C112.335123,11.4987067 113.080831,10.7433069 113.080831,9.70282632 C113.080831,8.69156012 112.335123,7.95766979 111.307725,7.95766979" id="Fill-46" fill="#FFFFFF"></path>
                <polygon id="Fill-48" fill="#FFFFFF" points="109.778719 29.4773503 112.81107 29.4773503 112.824255 14.2547442 109.792224 14.2547442"></polygon>
                <path d="M124.511671,16.4836712 C127.414754,16.4836712 129.603964,18.7935316 129.603964,21.8562235 C129.603964,24.9866542 127.462345,27.2586323 124.511671,27.2586323 C121.592188,27.2586323 119.390116,24.9359304 119.390116,21.8562235 C119.390116,18.7935316 121.592188,16.4836712 124.511671,16.4836712 M124.801079,13.6871188 C122.551415,13.6871188 120.644538,14.5600181 119.476938,16.1026004 L119.476938,8.19064626 L116.444265,8.19064626 L116.444265,29.4773182 L119.476938,29.4773182 L119.476938,27.5642594 C120.65933,29.1755436 122.517007,30.0548636 124.772138,30.0548636 C129.25571,30.0548636 132.636637,26.5301996 132.636637,21.8562235 C132.636637,17.1992624 129.267929,13.6871188 124.801079,13.6871188" id="Fill-50" fill="#FFFFFF"></path>
                <path d="M93.8251726,26.6073127 L93.8251726,8.19071047 L96.8520577,8.19071047 L96.8520577,25.8612229 C96.8520577,26.7488899 97.395823,26.8968879 98.1103389,26.8968879 L99.0721378,26.8968879 L99.0721378,29.4773825 L97.4302304,29.4773825 C95.5256048,29.4773825 93.8251726,28.8266407 93.8251726,26.6073127" id="Fill-52" fill="#FFFFFF"></path>
                <path d="M101.50474,26.6073127 L101.50474,8.19071047 L104.531625,8.19071047 L104.531625,25.8612229 C104.531625,26.7488899 105.07539,26.8968879 105.789906,26.8968879 L106.751705,26.8968879 L106.751705,29.4773825 L105.109798,29.4773825 C103.205172,29.4773825 101.50474,28.8266407 101.50474,26.6073127" id="Fill-54" fill="#FFFFFF"></path>
                <path d="M141.619247,14.1039531 C140.10275,14.1039531 138.881448,14.7248385 138.043773,15.8542463 L138.043773,14.2644716 L135.068982,14.2644716 L135.068982,29.4774467 L138.101655,29.4774467 L138.101655,21.3076999 C138.101655,18.5949382 139.199797,17.0042004 141.479367,17.0042004 C142.952453,17.0042004 143.639636,17.366009 143.639636,17.366009 L143.639636,14.4776401 C143.639636,14.4776401 143.032844,14.1039531 141.619247,14.1039531" id="Fill-56" fill="#FFFFFF"></path>
                <g id="Group-60" transform="translate(144.703949, 13.623200)">
                    <mask id="mask-4" fill="white">
                        <use xlink:href="#path-3"></use>
                    </mask>
                    <g id="Clip-59"></g>
                    <path d="M5.94485628,13.7244554 C4.1505273,13.7244554 3.07939651,13.0111115 3.07939651,11.8165332 C3.07939651,10.0906389 5.17792535,9.46365384 6.93527442,9.24245942 L10.6326211,8.82093799 L10.6326211,9.76639163 C10.6326211,12.0967984 8.70484294,13.7244554 5.94485628,13.7244554 L5.94485628,13.7244554 Z M14.918109,13.3051813 C14.2238516,13.3051813 13.6955214,13.1597515 13.6652943,12.3385392 L13.6652943,5.89725503 C13.6652943,2.39024806 11.1114304,0.124369691 7.15940476,0.124369691 C3.27780171,0.124369691 0.769921481,2.23165583 0.769921481,5.49306959 L0.769921481,5.80832782 L3.83635895,5.80832782 L3.83153549,5.487933 C3.82092386,4.8108662 4.0315485,4.24808853 4.45858594,3.81500977 C5.02711167,3.23842752 5.97572645,2.92092203 7.13078554,2.92092203 C9.32353272,2.92092203 10.6326211,4.01212642 10.6326211,5.83946839 L10.6326211,6.13739063 L6.86388714,6.59454716 C2.53145089,7.08444945 0.0467232975,9.0090656 0.0467232975,11.8743198 C0.0467232975,14.5498413 2.2780582,16.3479689 5.59788836,16.3479689 C7.76812604,16.3479689 9.49685589,15.5630337 10.6326211,14.0708542 L10.7934033,14.0743856 C11.2587069,15.4487446 12.6790565,15.8856758 14.2376788,15.8856758 L15.248034,15.8856758 L15.248034,13.3051813 L14.918109,13.3051813 Z" id="Fill-58" fill="#FFFFFF" mask="url(#mask-4)"></path>
                </g>
            </g>
        </g>
    </g>
</svg>