<svg width="180" height="110" viewBox="0 0 180 110" fill="none" xmlns="http://www.w3.org/2000/svg">
<path d="M0 0H180V55V110H0L40 55L0 0Z" fill="#E125FF"/>
<path d="M99.1527 49.8603C101.128 43.6803 109.872 43.6803 111.847 49.8603L112.047 50.4862C112.386 51.546 113.081 52.4561 114.014 53.0621V53.0621C118.513 55.9844 115.594 62.9662 110.354 61.8156L106.681 61.0092C105.903 60.8384 105.097 60.8384 104.319 61.0092L100.646 61.8156C95.4061 62.9662 92.4866 55.9844 96.986 53.0621V53.0621C97.9191 52.4561 98.6139 51.546 98.9527 50.4862L99.1527 49.8603Z" fill="#201F1F"/>
</svg>
