<svg width="31" height="32" viewBox="0 0 31 32" fill="none" xmlns="http://www.w3.org/2000/svg">
<path fill-rule="evenodd" clip-rule="evenodd" d="M21.4419 13.5582C21.4419 19.0353 17.3458 23.1164 12.7209 23.1164C8.09609 23.1164 4 19.0353 4 13.5582C4 8.08102 8.09609 4 12.7209 4C17.3458 4 21.4419 8.08102 21.4419 13.5582ZM20.2282 23.2028C18.1947 25.0218 15.5771 26.1164 12.7209 26.1164C6.24764 26.1164 1 20.4939 1 13.5582C1 6.62249 6.24764 1 12.7209 1C19.1942 1 24.4419 6.62249 24.4419 13.5582C24.4419 16.6881 23.3732 19.5506 21.6054 21.7496L30 29L28.6927 30.5136L20.2282 23.2028Z" fill="white"/>
<path d="M20.2282 23.2028L20.555 22.8244L20.2224 22.5371L19.8948 22.8301L20.2282 23.2028ZM21.6054 21.7496L21.2157 21.4363L20.9133 21.8125L21.2786 22.128L21.6054 21.7496ZM30 29L30.3784 29.3268L30.7052 28.9484L30.3268 28.6216L30 29ZM28.6927 30.5136L28.3659 30.892L28.7443 31.2188L29.0711 30.8404L28.6927 30.5136ZM12.7209 23.6164C17.6507 23.6164 21.9419 19.2817 21.9419 13.5582H20.9419C20.9419 18.7889 17.0408 22.6164 12.7209 22.6164V23.6164ZM3.5 13.5582C3.5 19.2817 7.79112 23.6164 12.7209 23.6164V22.6164C8.40106 22.6164 4.5 18.7889 4.5 13.5582H3.5ZM12.7209 3.5C7.79112 3.5 3.5 7.83462 3.5 13.5582H4.5C4.5 8.32743 8.40106 4.5 12.7209 4.5V3.5ZM21.9419 13.5582C21.9419 7.83462 17.6507 3.5 12.7209 3.5V4.5C17.0408 4.5 20.9419 8.32743 20.9419 13.5582H21.9419ZM12.7209 26.6164C15.7086 26.6164 18.4429 25.4706 20.5615 23.5754L19.8948 22.8301C17.9465 24.5729 15.4456 25.6164 12.7209 25.6164V26.6164ZM0.5 13.5582C0.5 20.737 5.93956 26.6164 12.7209 26.6164V25.6164C6.55571 25.6164 1.5 20.2508 1.5 13.5582H0.5ZM12.7209 0.5C5.93956 0.5 0.5 6.3794 0.5 13.5582H1.5C1.5 6.86558 6.55571 1.5 12.7209 1.5V0.5ZM24.9419 13.5582C24.9419 6.3794 19.5023 0.5 12.7209 0.5V1.5C18.8861 1.5 23.9419 6.86558 23.9419 13.5582H24.9419ZM21.9951 22.0629C23.8338 19.7756 24.9419 16.8028 24.9419 13.5582H23.9419C23.9419 16.5734 22.9125 19.3256 21.2157 21.4363L21.9951 22.0629ZM21.2786 22.128L29.6732 29.3784L30.3268 28.6216L21.9322 21.3712L21.2786 22.128ZM29.6216 28.6732L28.3143 30.1868L29.0711 30.8404L30.3784 29.3268L29.6216 28.6732ZM29.0195 30.1352L20.555 22.8244L19.9013 23.5812L28.3659 30.892L29.0195 30.1352Z" fill="white"/>
</svg>
